<?xml version="1.0" encoding="utf-8"?>
<!-- Generator: Adobe Illustrator 19.0.0, SVG Export Plug-In . SVG Version: 6.00 Build 0)  -->
<svg version="1.1" id="Camada_1" xmlns="http://www.w3.org/2000/svg" xmlns:xlink="http://www.w3.org/1999/xlink" x="0px" y="0px"
	 viewBox="0 0 612 792" style="enable-background:new 0 0 612 792;" xml:space="preserve">
<style type="text/css">
	.st0{fill:#404040;}
	.st1{fill:#FFFFFF;}
	.st2{fill:#A3BD31;}
</style>
<path id="XMLID_147_" class="st0" d="M231.9,386.9c-2.1-7.4-4.2-14.9-6.3-22.4c-1-3.6,0.3-7.2,3.4-9.4c13.1-9.2,26.2-18.3,39.3-27.5
	c1.7-1.2,3.8-1.8,5.8-2.1c0.9-0.1,1.5,0,1.3,1.1c-0.2,1.3,0.4,1.7,1.5,1.4c1-0.3,2.8,0.9,2.8-0.8c0.1-1.9,0.9-1.9,2.2-1.8
	c0.6,0.1,1.3,0,1.9,0c0.5,0,0.8,0.1,0.8,0.7c0,0.6-0.4,1.5,0.4,1.7c1.2,0.2,2.5,0.2,3.8,0.1c0.5,0,0.4-0.6,0.3-0.9
	c-0.3-1.4,0.4-1.8,1.7-1.6c0.7,0.1,1.4,0.1,2.1,0c0.9-0.1,1.3,0.2,1.2,1.2c-0.2,1.2,0.3,1.6,1.5,1.4c0.6-0.1,1.1-0.1,1.7,0
	c0.8,0.1,1.3-0.1,1.1-1c-0.3-1.5,0.5-1.7,1.7-1.6c0.7,0.1,1.4,0.1,2.1,0c0.9-0.1,1.3,0.2,1.2,1.1c-0.2,1.2,0.4,1.6,1.5,1.4
	c0.6-0.1,1.3-0.1,1.9,0c0.8,0.1,1.2-0.3,1.1-1.1c-0.2-1.4,0.5-1.6,1.6-1.5c0.6,0.1,1.3,0.1,1.9,0c1.1-0.1,1.7,0.2,1.5,1.4
	c-0.2,0.9,0.2,1.3,1.1,1.2c0.6-0.1,1.3-0.1,1.9,0c1.1,0.2,1.4-0.4,1.2-1.3c-0.2-1.1,0.4-1.4,1.4-1.3c0.7,0.1,1.4,0.1,2.1,0
	c1.2-0.1,1.7,0.3,1.4,1.4c-0.2,0.9,0.2,1.3,1.1,1.2c0.7-0.1,1.4-0.1,2.1,0c1,0.1,1.4-0.3,1.3-1.3c-0.2-1,0.2-1.4,1.2-1.3
	c0.8,0.1,1.5,0.1,2.3,0c1-0.1,1.5,0.2,1.3,1.2c-0.2,1.2,0.4,1.5,1.4,1.4c0.6-0.1,1.2-0.1,1.7,0c1,0.1,1.5-0.2,1.3-1.3
	c-0.3-1.4,0.6-1.4,1.5-1.3c2.2,0.4,4.3,1.1,6.1,2.4c12.5,8.8,25,17.5,37.6,26.3c4.6,3.2,5.7,6.3,4.1,11.8c-1.8,6.5-3.6,13-5.5,19.5
	c-0.2,0.8-0.3,1.8-1.7,1.1c-0.8-0.4-1.3-0.1-1.4,0.9c-0.1,0.7-0.5,1.4-0.7,2.2c-0.2,0.6-0.3,1.1,0.6,1.2c1.4,0.1,1.4,0.9,0.9,2
	c-0.3,0.6-0.4,1.3-0.5,2c-0.2,0.8-0.4,1.6-1.6,1c-0.8-0.4-1.3-0.1-1.4,0.9c-0.1,0.7-0.4,1.5-0.6,2.2c-0.2,0.7-0.1,1.1,0.7,1.2
	c1.4,0.2,1.4,0.9,0.9,2c-0.3,0.7-0.4,1.6-0.7,2.4c-0.2,0.6-0.4,1-1.2,0.6c-1.1-0.6-1.6-0.1-1.8,1.1c-0.1,0.7-0.4,1.3-0.6,2
	c-0.2,0.6,0,1.1,0.6,1.1c1.8,0.2,1.4,1.2,1,2.2c-0.2,0.6-0.4,1.2-0.5,1.8c-0.2,0.9-0.6,1.4-1.6,0.9c-0.9-0.5-1.3,0-1.5,0.8
	c-0.2,0.7-0.3,1.5-0.6,2.2c-0.3,0.8-0.1,1.3,0.7,1.3c1.4,0.1,1.3,0.9,1,1.8c-0.2,0.7-0.6,1.4-0.7,2.2c-0.1,1-0.7,1.4-1.5,0.9
	c-1.1-0.5-1.3,0-1.5,0.9c-0.2,0.7-0.3,1.4-0.6,2c-0.4,0.9-0.2,1.3,0.8,1.4c1.3,0.1,1.2,0.9,0.9,1.8c-0.3,0.7-0.6,1.4-0.7,2.2
	c-0.1,1.1-0.7,1.3-1.6,0.9c-1.2-0.6-1.4,0.1-1.6,1c-0.1,0.6-0.2,1.1-0.4,1.6c-0.4,0.9-0.5,1.5,0.8,1.7c0.8,0.1,1.4,0.4,0.8,1.5
	c-0.4,0.7-0.5,1.6-0.7,2.4c-0.2,1.2-0.9,1.5-1.8,1c-1-0.6-1.2,0.1-1.4,0.8c-0.2,0.7-0.2,1.4-0.5,2c-0.5,1.1-0.1,1.5,0.9,1.6
	c1,0.1,1.1,0.5,0.8,1.5c-2.4,8.3-4.7,16.5-7,24.8c-1.1,3.7-4.5,6.3-8.6,6.3c-3.1,0-6.1,0-9.2,0c-1.1,0-1.6-0.3-1.4-1.4
	c0.2-1-0.2-1.4-1.2-1.3c-0.7,0.1-1.4,0-2.1,0c-0.8,0-1.3,0.1-1.1,1c0.3,1.4-0.4,1.8-1.7,1.6c-0.6-0.1-1.3-0.1-1.9,0
	c-0.9,0.1-1.4-0.2-1.2-1.1c0.3-1.4-0.5-1.6-1.6-1.5c-0.6,0.1-1.1,0.1-1.7,0c-0.9-0.1-1.4,0.1-1.2,1.1c0.2,1.3-0.4,1.7-1.6,1.5
	c-0.6-0.1-1.1-0.1-1.7,0c-1.2,0.1-1.9-0.1-1.6-1.5c0.2-1-0.3-1.2-1.2-1.1c-0.7,0.1-1.4,0.1-2.1,0c-0.9-0.1-1.2,0.3-1,1.1
	c0.2,1.3-0.4,1.7-1.6,1.5c-0.7-0.1-1.4-0.1-2.1,0c-1,0.1-1.4-0.3-1.3-1.3c0.2-1.1-0.3-1.5-1.3-1.4c-0.7,0.1-1.4,0.1-2.1,0
	c-0.9-0.1-1.2,0.3-1,1.1c0.2,1.3-0.3,1.7-1.6,1.5c-0.7-0.1-1.4-0.1-2.1,0c-1,0.1-1.5-0.2-1.3-1.3c0.2-1.1-0.2-1.5-1.3-1.4
	c-0.6,0.1-1.1,0.1-1.7,0c-1-0.1-1.4,0.2-1.3,1.2c0.2,1.3-0.5,1.5-1.6,1.4c-0.5-0.1-1-0.1-1.5,0c-1.2,0.1-2.2,0-1.9-1.6
	c0.2-0.9-0.4-1-1.1-1c-0.7,0-1.4,0.1-2.1,0c-0.9-0.1-1.5,0.1-1.3,1.2c0.2,1.2-0.4,1.6-1.5,1.4c-0.7-0.1-1.4-0.1-2.1,0
	c-0.9,0.1-1.4-0.3-1.2-1.2c0.3-1.4-0.5-1.6-1.6-1.5c-0.5,0-1,0-1.5,0c-0.9-0.1-1.5,0.1-1.3,1.2c0.2,1.2-0.3,1.5-1.5,1.4
	c-3.6-0.2-7.3,0.3-10.8-0.3c-3.4-0.6-5.8-2.7-6.7-6c-2.4-8.2-4.7-16.5-7.1-24.8c-0.3-1.1,0-1.5,0.9-1.6c1-0.1,1.3-0.5,0.8-1.5
	c-0.3-0.6-0.4-1.3-0.5-2c-0.2-0.8-0.4-1.4-1.5-0.9c-0.8,0.5-1.5,0.3-1.7-0.9c-0.1-0.7-0.4-1.3-0.6-2c-0.4-1.1-0.5-2,1-2
	c0.8,0,1-0.4,0.7-1.2c-0.3-0.8-0.4-1.6-0.7-2.4c-0.2-0.8-0.5-1.2-1.5-0.7c-0.9,0.4-1.5,0.1-1.7-1c-0.1-0.7-0.4-1.3-0.6-2
	c-0.4-1-0.4-1.8,1-1.9c0.8-0.1,1-0.5,0.7-1.3c-0.3-0.7-0.4-1.5-0.6-2.2c-0.2-0.8-0.5-1.3-1.4-0.8c-1,0.5-1.5,0.1-1.6-1
	c-0.1-0.7-0.4-1.4-0.7-2.2c-0.3-0.9-0.4-1.6,0.9-1.7c0.9-0.1,1.2-0.6,0.8-1.5c-0.3-0.7-0.4-1.5-0.6-2.2c-0.2-0.8-0.6-1.1-1.4-0.7
	c-1.1,0.6-1.5,0.1-1.7-0.9c-0.1-0.7-0.4-1.5-0.6-2.2c-0.2-0.8-0.5-1.6,0.8-1.7c0.9-0.1,1.2-0.6,0.8-1.5c-0.3-0.6-0.5-1.2-0.5-1.8
	c-0.1-1.1-0.7-1.5-1.7-1c-0.9,0.4-1.1,0-1.3-0.7c-0.3-1-0.6-1.9-0.8-2.9c-0.1-0.6-0.2-1.1,0.7-1.2c1.2-0.1,1.4-0.7,0.9-1.8
	c-0.3-0.6-0.4-1.3-0.5-2c-0.1-0.5-0.3-0.7-0.9-0.7c-0.6,0-1.3,1.1-1.7,0c-0.5-1.4-0.8-2.8-1.1-4.2c0-0.1,0.1-0.3,0.2-0.3
	c3.6-0.7,0.9-2.9,0.7-4.2C234.1,385.7,232.8,387.2,231.9,386.9z M309.5,466.8c16.8,0,31-13.3,32.1-30c0.1-1.5-0.1-3,1-4.4
	c3.7-5.1,7.3-10.2,10.9-15.4c0.5-0.7,1.1-1.2,1.9-1.5c10.1-4,15.9-13.2,15.5-23.3c-0.5-11.2-7.9-19.9-18.6-22.5
	c-1.1-0.3-2.1-0.7-3.1-1.4c-5-3.5-10-6.9-14.9-10.5c-2.5-1.8-4.9-3.1-8-2.6c-1.1,0.2-1.4-0.3-1.7-1.4c-2.8-10.4-11.8-17.6-22.4-18.1
	c-11.7-0.5-22.5,8.2-24.4,19.7c-0.2,1.5-0.8,2.5-2.1,3.3c-5.3,3.6-10.5,7.3-15.8,11c-1,0.7-1.3,1.3-1,2.6c4.6,16,9.2,32.1,13.7,48.1
	c1.7,6.2,4,12.3,5.1,18.7C280.2,455.2,293.6,466.8,309.5,466.8z"/>
<path id="XMLID_145_" class="st0" d="M242.3,462.6c-3.7,0.1-8.1,0.1-12.2-2.1c-4.8-2.5-8.2-6.3-9.7-11.4c-4.6-16-9.3-32-13.6-48.1
	c-2.1-7.9,0.6-14.8,6.9-20.1c3-2.5,6.3-4.5,9.4-6.8c0.9-0.6,1.2-0.4,1.4,0.5c1,3.6,2,7.2,3.1,10.8c0.2,0.8,0.1,1.4-0.7,1.9
	c-1.6,1-3.1,2.1-4.7,3.3c-2.5,1.8-3.7,5.1-2.9,8.1c4.4,15.4,8.8,30.9,13.2,46.3c0.8,2.9,3.2,4.8,6.3,4.9c1.9,0.1,3.8,0.1,5.7,0
	c1-0.1,1.5,0.3,1.7,1.2c1,3.5,1.9,6.9,2.9,10.4c0.3,1.1,0.1,1.3-1,1.3C246.6,462.6,244.8,462.6,242.3,462.6z"/>
<path id="XMLID_144_" class="st0" d="M367.9,462.6c-1.7,0-3.4,0-5.2,0c-0.9,0-1.3-0.2-1-1.2c1.1-3.6,2.1-7.2,3.1-10.8
	c0.2-0.8,0.7-1,1.5-1c1.8,0.1,3.6,0,5.3,0c3.6,0,5.8-1.7,6.8-5.1c4.4-15.4,8.8-30.7,13.2-46.1c0.8-2.8-0.4-6.2-2.8-8
	c-1.4-1-2.9-2.1-4.4-3c-1.1-0.7-1.4-1.4-1-2.6c1-3.3,2-6.7,2.9-10c0.3-1.2,0.5-1.5,1.7-0.7c2.7,2,5.5,3.9,8.2,5.8
	c6.8,4.9,10,13.4,7.8,21.5c-4.4,15.9-8.9,31.7-13.5,47.6c-2.3,7.9-10,13.5-18.3,13.5C370.9,462.6,369.4,462.6,367.9,462.6z"/>
<path id="XMLID_143_" class="st0" d="M219,349.9c-1.7-2.9-1.2-5.7,1.4-7.6c3.2-2.3,6.4-4.5,9.7-6.8c0.6-0.4,0.9-0.7,0.7-1.6
	c-0.6-1.8,0-3.4,1.6-4.5c3.6-2.5,7.2-5,10.8-7.5c1.5-1,3.1-1.1,4.6,0.1c0.8,0.7,1.3,0.3,1.9-0.1c3.2-2.2,6.3-4.5,9.5-6.7
	c2.3-1.6,5.2-1.4,7,0.3c0.6,0.6,0.7,1-0.1,1.6c-1.2,0.8-3.1,1.3-3.2,2.6c-0.1,1.1,1.4,2.3,2.2,3.4c0.9,1.1,0.9,1.7-0.4,2.6
	c-12.1,8.4-24.2,16.9-36.3,25.4c-1,0.7-1.6,0.9-2.3-0.4c-0.8-1.3-1.6-3.2-2.7-3.5c-1-0.2-2.4,1.4-3.7,2.2
	C219.4,349.7,219.3,349.7,219,349.9z"/>
<path id="XMLID_142_" class="st0" d="M392.1,349.9c-0.4-0.2-0.7-0.4-1.1-0.7c-1.1-0.7-2.2-2.3-3.2-2c-1,0.3-1.7,1.9-2.4,3.1
	c-0.8,1.4-1.5,1.7-3,0.6c-11.9-8.5-23.9-16.8-36-25.2c-1.1-0.8-1.6-1.3-0.5-2.4c0,0,0.1-0.1,0.1-0.2c0.8-1.2,2.3-2.4,2.2-3.6
	c-0.1-0.9-2-1.7-3.2-2.4c-0.9-0.6-0.7-1-0.1-1.6c1.8-1.7,4.6-1.9,7-0.3c3.2,2.2,6.3,4.4,9.5,6.7c0.6,0.5,1.1,0.8,1.9,0.1
	c1.3-1.2,3-1.2,4.4-0.2c3.7,2.5,7.3,5.1,10.9,7.6c1.6,1.1,2.1,2.7,1.6,4.5c-0.3,0.9,0.1,1.2,0.7,1.6c3.2,2.2,6.5,4.5,9.6,6.8
	C393.3,344.2,393.8,347,392.1,349.9z"/>
<path id="XMLID_130_" class="st1" d="M309.5,466.8c-15.9,0-29.3-11.7-31.9-27.5c-1-6.4-3.3-12.5-5.1-18.7
	c-4.5-16.1-9.1-32.1-13.7-48.1c-0.4-1.3-0.1-1.9,1-2.6c5.3-3.6,10.5-7.4,15.8-11c1.3-0.9,1.9-1.9,2.1-3.3
	c2-11.6,12.8-20.3,24.4-19.7c10.6,0.5,19.5,7.6,22.4,18.1c0.3,1,0.5,1.6,1.7,1.4c3.1-0.5,5.6,0.7,8,2.6c4.9,3.6,10,7,14.9,10.5
	c0.9,0.7,1.9,1.1,3.1,1.4c10.7,2.6,18.1,11.3,18.6,22.5c0.5,10-5.4,19.3-15.5,23.3c-0.8,0.3-1.4,0.8-1.9,1.5
	c-3.6,5.1-7.2,10.3-10.9,15.4c-1,1.4-0.9,2.9-1,4.4C340.5,453.5,326.3,466.8,309.5,466.8z M281,434.5c-0.1,15.4,12.6,28.3,27.7,28.6
	c15.4,0.2,29-11.6,29.2-28.4c0.2-15.3-12.7-28.5-27.8-28.5C293.8,406,281.1,418.4,281,434.5z M346.7,413.5
	c11.3,0,20.3-9.1,20.3-20.3c0-11.2-9.2-20.3-20.4-20.3c-11.2,0-20.2,9.1-20.2,20.4C326.5,404.5,335.6,413.5,346.7,413.5z
	 M301.2,380.2c11.2,0,20.3-9,20.3-20.1c0-11.2-9-20.4-20.2-20.5c-11.3,0-20.3,8.9-20.4,20.2C280.8,371.1,289.9,380.2,301.2,380.2z
	 M283,375.8c0,13.5,0,26.8,0,40.4c1.1-1.3,2-2.4,2.9-3.4c0.5-0.5,0.6-1,0.6-1.7c0-10.3,0-20.6,0-30.9c0-0.6,0.1-1.2-0.5-1.7
	C285,377.6,284.1,376.8,283,375.8z M325.2,362.5c-0.2,1.2-0.3,2.1-0.6,3c-0.2,0.8-0.1,1.2,0.6,1.7c2.5,1.8,5,3.6,7.5,5.4
	c0.5,0.4,0.9,0.6,1.5,0.2c0.9-0.6,1.8-1,2.9-1.7C333.1,368.2,329.2,365.4,325.2,362.5z M341.2,428c2.5-3.6,5-7.1,7.4-10.6
	c-3.2-0.9-5,0.3-6.9,2.9C339.9,422.9,339.6,425.1,341.2,428z"/>
<path id="XMLID_127_" class="st2" d="M281,434.5c0.1-16.1,12.9-28.5,29.2-28.4c15.1,0.1,28,13.2,27.8,28.5
	c-0.2,16.8-13.8,28.7-29.2,28.4C293.6,462.9,280.8,449.9,281,434.5z M318.6,434.6c0-5-4.1-9.1-9-9.2c-5,0-9.3,4.2-9.3,9.1
	c0,5.1,4.2,9.3,9.2,9.3C314.4,443.8,318.6,439.6,318.6,434.6z"/>
<path id="XMLID_124_" class="st2" d="M346.7,413.5c-11.2,0-20.2-8.9-20.2-20.1c0-11.3,8.9-20.4,20.2-20.4c11.2,0,20.4,9.1,20.4,20.3
	C367,404.4,358,413.4,346.7,413.5z M346.7,399.3c3.4,0,6.2-2.7,6.2-6.1c0-3.3-2.8-6-6-6.1c-3.4-0.1-6.1,2.7-6.1,6.1
	C340.7,396.6,343.3,399.2,346.7,399.3z"/>
<path id="XMLID_121_" class="st2" d="M301.2,380.2c-11.3,0-20.4-9.1-20.2-20.3c0.1-11.3,9.1-20.2,20.4-20.2
	c11.2,0,20.2,9.2,20.2,20.5C321.5,371.2,312.4,380.3,301.2,380.2z M301.1,366c3.4,0,6.3-2.8,6.3-6.1c0-3.2-2.9-6-6.1-6.1
	c-3.3,0-6,2.7-6.1,6C295.2,363.3,297.8,366,301.1,366z"/>
<path id="XMLID_120_" class="st0" d="M283,375.8c1.1,1,2,1.8,3,2.6c0.6,0.5,0.5,1.1,0.5,1.7c0,10.3,0,20.6,0,30.9
	c0,0.7-0.1,1.2-0.6,1.7c-1,1-1.9,2.2-2.9,3.4C283,402.6,283,389.3,283,375.8z"/>
<path id="XMLID_119_" class="st0" d="M325.2,362.5c4.1,3,7.9,5.8,11.9,8.7c-1.1,0.6-2,1.1-2.9,1.7c-0.6,0.4-1,0.2-1.5-0.2
	c-2.5-1.8-5-3.7-7.5-5.4c-0.7-0.5-0.8-1-0.6-1.7C324.8,364.6,325,363.6,325.2,362.5z"/>
<path id="XMLID_118_" class="st0" d="M341.2,428c-1.6-2.9-1.3-5.1,0.6-7.7c1.8-2.5,3.7-3.7,6.9-2.9
	C346.2,420.9,343.7,424.4,341.2,428z"/>
<path id="XMLID_117_" class="st1" d="M318.6,434.6c0,5.1-4.1,9.3-9.1,9.2c-5,0-9.2-4.2-9.2-9.3c0-5,4.3-9.2,9.3-9.1
	C314.5,425.4,318.5,429.6,318.6,434.6z"/>
<path id="XMLID_116_" class="st1" d="M346.7,399.3c-3.3,0-6-2.7-6-6.1c0-3.4,2.8-6.2,6.1-6.1c3.3,0.1,6,2.8,6,6.1
	C352.9,396.5,350.1,399.3,346.7,399.3z"/>
<path id="XMLID_115_" class="st1" d="M301.1,366c-3.3,0-6-2.7-6-6.1c0-3.3,2.8-6.1,6.1-6c3.2,0,6.1,2.9,6.1,6.1
	C307.4,363.3,304.6,366.1,301.1,366z"/>
</svg>
